<svg width="178" height="56" viewBox="0 0 178 56" fill="none" xmlns="http://www.w3.org/2000/svg">
<g clip-path="url(#clip0_7224_2547)">
<path d="M29.0074 28.1531L14.717 19.7681C14.1897 19.4592 13.5917 19.2967 12.983 19.2969C12.3743 19.2971 11.7764 19.46 11.2493 19.7693C10.7222 20.0786 10.2845 20.5234 9.98022 21.0589C9.6759 21.5945 9.51567 22.202 9.51563 22.8204V39.5846C9.51531 40.2031 9.67537 40.8108 9.97968 41.3464C10.284 41.8821 10.7218 42.3269 11.2491 42.636C11.7764 42.9451 12.3745 43.1077 12.9833 43.1073C13.5921 43.107 14.1901 42.9437 14.717 42.634L29.0074 34.2518C29.5343 33.9428 29.9719 33.4984 30.2761 32.9631C30.5804 32.4278 30.7405 31.8206 30.7405 31.2025C30.7405 30.5844 30.5804 29.9772 30.2761 29.4419C29.9719 28.9066 29.5343 28.4621 29.0074 28.1531Z" fill="#FF894D"/>
<path d="M28.2418 26.7102L13.9486 18.3252C13.4215 18.0161 12.8236 17.8534 12.215 17.8535C11.6064 17.8536 11.0085 18.0166 10.4816 18.326C9.95462 18.6354 9.51717 19.0803 9.2132 19.6159C8.90924 20.1516 8.74948 20.7591 8.75 21.3774V38.1417C8.74948 38.76 8.90924 39.3676 9.2132 39.9032C9.51717 40.4389 9.95462 40.8838 10.4816 41.1932C11.0085 41.5025 11.6064 41.6655 12.215 41.6656C12.8236 41.6658 13.4215 41.5031 13.9486 41.1939L28.2418 32.8089C28.7687 32.4999 29.2063 32.0554 29.5105 31.5202C29.8147 30.9849 29.9749 30.3777 29.9749 29.7596C29.9749 29.1415 29.8147 28.5343 29.5105 27.999C29.2063 27.4637 28.7687 27.0192 28.2418 26.7102Z" fill="#FED02B"/>
<path opacity="0.46" d="M13.5472 41.4396L16.4784 39.7249C14.1334 36.8471 12.7276 33.2994 12.4559 29.5736C12.1842 25.8478 13.0601 22.1284 14.9622 18.931L13.5557 18.1022C13.0701 17.8201 12.5202 17.6724 11.9608 17.6738C11.4015 17.6753 10.8523 17.8259 10.3682 18.1106C9.8841 18.3952 9.48202 18.804 9.20216 19.296C8.92231 19.7881 8.77447 20.3461 8.77344 20.9144V38.6332C8.77629 39.1997 8.92501 39.7556 9.20483 40.2456C9.48465 40.7357 9.88582 41.1428 10.3685 41.4266C10.8512 41.7103 11.3985 41.8608 11.9561 41.8631C12.5138 41.8654 13.0623 41.7194 13.5472 41.4396Z" fill="#FF894D"/>
<path opacity="0.61" d="M28.2427 26.7101L18.3126 20.8857C18.3091 22.2204 18.4297 23.5523 18.6726 24.8639C19.9329 29.1278 23.9415 32.5802 28.4931 32.643C28.9712 32.3043 29.3574 31.8484 29.616 31.3176C29.8745 30.7868 29.9969 30.1984 29.972 29.6067C29.947 29.015 29.7754 28.4394 29.4731 27.933C29.1709 27.4267 28.7476 27.006 28.2427 26.7101Z" fill="#FFAC3E"/>
<path d="M52.7121 21.4344C51.447 22.2645 50.235 23.1751 49.0833 24.1608C48.0253 25.0637 47.0308 26.0406 46.107 27.0844C45.7357 27.5045 45.3897 27.9246 45.0634 28.3476C44.9949 32.0248 43.806 35.59 41.6603 38.5523C39.5146 41.5146 36.5177 43.7281 33.0823 44.8882C29.6469 46.0482 25.9419 46.0977 22.4777 45.0298C19.0134 43.9618 15.9603 41.829 13.7387 38.9251C11.5171 36.0211 10.2364 32.4889 10.0729 28.8147C9.90935 25.1406 10.8711 21.5054 12.8257 18.4096C14.7802 15.3138 17.6314 12.9098 20.9867 11.5286C24.3419 10.1474 28.0362 9.85703 31.5606 10.6974C31.9572 9.15271 32.4573 7.63737 33.0572 6.16194C33.7146 4.43376 34.5243 2.76943 35.4764 1.18924C29.6204 -0.594193 23.3469 -0.349477 17.6427 1.8849C11.9384 4.11928 7.1271 8.21656 3.96534 13.5323C0.803577 18.8481 -0.529225 25.0808 0.176548 31.2502C0.882322 37.4196 3.58663 43.1756 7.86415 47.613C12.1417 52.0504 17.7497 54.9174 23.8063 55.7632C29.8629 56.6089 36.0244 55.3854 41.3218 52.2851C46.6191 49.1847 50.7518 44.3834 53.0699 38.6363C55.3879 32.8892 55.7598 26.5223 54.1271 20.537C53.6489 20.8228 53.1707 21.1172 52.7121 21.4344Z" fill="url(#paint0_linear_7224_2547)"/>
<path opacity="0.33" d="M54.1248 20.5371C53.6465 20.8229 53.1711 21.1087 52.7182 21.423C52.316 21.686 51.9249 21.9603 51.5395 22.2347C51.367 23.0825 51.1607 23.9313 50.9207 24.781C46.3325 40.868 31.1194 50.5333 16.9359 46.3637C8.88211 44.0117 2.89026 37.6815 0.0546875 29.7223C0.281485 33.6459 1.31861 37.477 3.09862 40.9666C4.87863 44.4562 7.36167 47.5261 10.3863 49.9768C13.4109 52.4274 16.9093 54.2038 20.6542 55.1906C24.399 56.1773 28.3063 56.3523 32.122 55.7041C35.9377 55.0559 39.5765 53.599 42.8016 51.4282C46.0267 49.2575 48.766 46.4214 50.8413 43.1044C52.9166 39.7875 54.2815 36.0639 54.8472 32.1758C55.4129 28.2877 55.1667 24.3222 54.1248 20.5371Z" fill="#2E54E5"/>
<path d="M54.1263 20.5371C53.648 20.8229 53.1726 21.1087 52.7197 21.423C51.4546 22.2531 50.2426 23.1637 49.0909 24.1495C48.4438 24.7077 47.8325 25.2793 47.2567 25.8642C47.0692 26.8263 46.8395 27.7894 46.5675 28.7535C41.9878 44.8433 26.7747 54.5058 12.5912 50.339C11.5749 50.0393 10.5788 49.6728 9.60938 49.2416C14.0924 53.1444 19.6902 55.4821 25.579 55.9105C31.4678 56.3389 37.3364 54.8354 42.321 51.6213C47.3056 48.4072 51.1429 43.6523 53.2681 38.0565C55.3933 32.4607 55.6941 26.3196 54.1263 20.5371Z" fill="url(#paint1_linear_7224_2547)"/>
<path d="M34.4819 2.96403C34.8054 2.32958 35.1373 1.73229 35.4805 1.17786C33.6234 0.614871 31.7131 0.251831 29.7812 0.0947266C31.4494 0.868505 33.0262 1.83103 34.4819 2.96403Z" fill="url(#paint2_linear_7224_2547)"/>
<path d="M54.1278 20.5371C53.6496 20.8229 53.1742 21.1087 52.7213 21.423C51.4562 22.2531 50.2441 23.1637 49.0924 24.1495C48.0344 25.0523 47.0399 26.0292 46.1162 27.0731C45.7589 27.4789 45.427 27.8847 45.1091 28.2877C45.081 28.7621 45.0416 29.2336 44.9909 29.7166C44.9628 30.031 44.9234 30.3425 44.8784 30.6483C44.6593 32.2984 44.3208 33.9299 43.8657 35.5295C41.1061 45.2205 34.4897 52.5796 26.5625 55.989C26.8973 55.989 27.2348 56.009 27.5752 56.009C31.8209 56.0062 36.0085 55.0071 39.8116 53.0897C43.6148 51.1724 46.9306 48.3885 49.5006 44.9552C52.0706 41.5219 53.8253 37.532 54.6279 33.2965C55.4306 29.061 55.2594 24.6944 54.1278 20.5371Z" fill="url(#paint3_linear_7224_2547)"/>
<path opacity="0.6" d="M10.0601 28.0081C10.0574 25.2644 10.6809 22.5576 11.8816 20.1C13.0824 17.6425 14.8276 15.5012 16.9802 13.8445C18.9739 11.5107 21.4328 9.63374 24.1941 8.33799C26.9555 7.04223 29.9563 6.3572 32.9979 6.32825L33.0654 6.15678C33.1385 5.97102 33.2145 5.78811 33.2876 5.60521C33.3622 3.97211 33.5256 2.34445 33.7771 0.729678C28.5791 -0.495346 23.1428 -0.160049 18.1288 1.69481C13.1149 3.54968 8.73931 6.84424 5.53382 11.1781C4.79435 16.9739 5.50547 22.8656 7.60143 28.3081C8.93961 31.8744 10.8294 35.2009 13.1994 38.1621C11.1523 35.1848 10.0563 31.6398 10.0601 28.0081Z" fill="#1F6BDB"/>
<path d="M48.0588 12.3576C50.2023 11.4145 53.021 16.1357 53.021 16.1357C51.6708 16.9216 49.364 18.7306 48.1572 19.6537C46.9733 20.5468 45.8458 21.5146 44.7815 22.5516C43.7887 23.5181 42.8629 24.5532 42.0107 25.6495C41.2348 26.6402 40.5369 27.6913 39.9234 28.7932L38.3959 28.3217C38.3959 27.8301 38.3959 27.31 38.4353 26.7641C38.4746 26.2183 38.5281 25.6724 38.604 25.1266C38.677 24.5979 38.7804 24.074 38.9135 23.5576C39.0291 23.103 39.1728 22.6563 39.3439 22.2201C38.6519 21.9781 37.9889 21.7543 37.355 21.5485C36.6938 21.3292 36.0647 21.0206 35.4843 20.6311C34.4603 20.0072 33.7051 19.0144 33.3689 17.8504C33.1945 17.1988 33.2001 16.2386 33.3858 14.9697C33.6255 13.492 33.9887 12.0378 34.4716 10.6229C34.977 8.93751 35.6757 7.31836 36.5533 5.79877C37.3128 4.55084 38.2777 3.76397 39.448 3.43817C40.5469 3.10556 41.723 3.14874 42.7955 3.56106C43.0543 3.69633 43.451 3.91067 43.9854 4.20408C44.5858 4.54223 45.1612 4.92428 45.707 5.34723L45.0741 11.4859C42.9437 10.44 41.5174 10.016 40.7954 10.2142C40.4144 10.3197 40.0388 10.4447 39.6702 10.5886C39.2629 10.7528 38.8891 10.9921 38.5675 11.2945C38.2354 11.5843 37.9438 11.9189 37.701 12.289C37.615 12.4026 37.5533 12.5333 37.5199 12.6726C37.4864 12.8118 37.482 12.9567 37.5069 13.0978C37.8464 14.3648 40.0453 15.1154 44.1036 15.3498C45.347 14.3267 46.6522 13.3369 48.0194 12.3805" fill="url(#paint4_linear_7224_2547)"/>
<path d="M10.0551 28.0076C10.0539 25.3257 10.6498 22.6782 11.7981 20.2632C12.9464 17.8483 14.6175 15.7285 16.6863 14.0625C18.7551 12.3965 21.1679 11.2274 23.7443 10.6426C26.3207 10.0579 28.9939 10.0728 31.5639 10.686C31.9605 9.14138 32.4605 7.62604 33.0605 6.1506C33.7178 4.42242 34.5276 2.75809 35.4797 1.17791C31.1433 -0.142373 26.5536 -0.357443 22.1159 0.551695C17.6783 1.46083 13.5293 3.4662 10.0355 6.39067C7.50369 11.0919 6.37846 17.0591 7.22238 23.3207C7.77267 27.511 9.23008 31.5254 11.4898 35.0751C10.5388 32.8444 10.0505 30.4386 10.0551 28.0076Z" fill="url(#paint5_linear_7224_2547)"/>
<path d="M54.1264 20.5371C53.6481 20.8229 53.1727 21.1087 52.7198 21.423C51.4548 22.2531 50.2427 23.1637 49.091 24.1495C48.033 25.0523 47.0385 26.0292 46.1147 27.0731C45.7462 27.4903 45.403 27.9104 45.0767 28.3277C45.461 29.6837 45.7505 31.0656 45.9431 32.463C46.9868 40.0992 45.0823 47.2925 41.2734 52.2909C46.5834 49.2005 50.7292 44.4017 53.0565 38.6518C55.3839 32.902 55.7603 26.5284 54.1264 20.5371Z" fill="url(#paint6_linear_7224_2547)"/>
<path d="M40.4531 53.4428C41.1504 52.5434 41.7742 51.5876 42.3182 50.585C43.4152 48.6038 44.2657 46.4919 44.85 44.2977C45.1486 43.2076 45.3788 42.0994 45.5392 40.9797C45.865 38.7322 45.9536 36.4559 45.8036 34.1894C45.6456 31.9005 45.324 29.6263 44.8415 27.3848C45.6789 29.5496 46.246 31.8126 46.5294 34.1208C46.8201 36.4457 46.8012 38.7999 46.4731 41.1197C46.3017 42.2792 46.0507 43.4252 45.722 44.5491C45.381 45.6635 44.9569 46.7497 44.4533 47.7985C43.957 48.8529 43.3765 49.8641 42.7176 50.8222C42.0659 51.7824 41.3059 52.6619 40.4531 53.4428Z" fill="white"/>
<path opacity="0.19" d="M31.57 10.6862C31.9666 9.14154 32.4666 7.6262 33.0666 6.15076C33.2447 5.70113 33.4229 5.26959 33.601 4.85615C25.8201 4.62752 17.7635 9.6288 13.0938 18.0024C15.084 15.0279 17.9153 12.7364 21.2139 11.4302C24.5124 10.124 28.1233 9.86463 31.57 10.6862Z" fill="#92FAFF"/>
<path d="M29.7858 30.9142C30.0525 30.1412 30.0447 29.2977 29.7637 28.5299C29.4827 27.7622 28.9461 27.1184 28.247 26.7103L24.4297 24.4697C25.3279 27.2406 27.2475 29.5503 29.7858 30.9142Z" fill="#FED02B"/>
<path opacity="0.19" d="M54.1293 20.5371C53.6511 20.8229 53.1757 21.1087 52.7228 21.423C51.727 22.0804 50.779 22.7691 49.8957 23.4836C51.1567 28.9923 50.9949 34.7386 49.4259 40.165C48.4752 43.5191 47.0135 46.7013 45.0938 49.5959C49.2042 46.1585 52.2454 41.584 53.8491 36.4265C55.4528 31.2689 55.5501 25.7497 54.1293 20.5371Z" fill="#92FAFF"/>
<path opacity="0.35" d="M45.5453 6.93664L45.7085 5.36481C45.1626 4.94186 44.5872 4.5598 43.9868 4.22166C43.4524 3.92825 43.0557 3.71391 42.7969 3.57864C41.7244 3.16631 40.5483 3.12314 39.4494 3.45575C38.2791 3.77964 37.3142 4.56651 36.5547 5.81635C35.6771 7.33594 34.9784 8.95508 34.473 10.6404C33.9902 12.0554 33.6269 13.5096 33.3872 14.9873C33.1997 16.2562 33.194 17.2164 33.3703 17.868C33.4413 18.1221 33.5355 18.369 33.6516 18.6053C34.2142 14.8501 35.6827 11.2406 38.1525 8.34557C40.102 6.19931 43.0304 5.9078 45.5453 6.93664Z" fill="url(#paint7_linear_7224_2547)"/>
<path opacity="0.2" d="M38.8968 22.0808L39.3413 22.2351C39.1702 22.6713 39.0265 23.118 38.9109 23.5726C38.7778 24.0891 38.6745 24.6129 38.6015 25.1416C38.5255 25.6874 38.4692 26.2362 38.4327 26.7792C38.3961 27.3221 38.3848 27.8451 38.3933 28.3367L39.9208 28.8082C40.5343 27.7064 41.2322 26.6552 42.0081 25.6646C42.8603 24.5683 43.7861 23.5332 44.779 22.5666C45.8432 21.5297 46.9707 20.5618 48.1546 19.6688C49.3755 18.7457 51.6682 16.9366 53.0185 16.1507C53.0185 16.1507 50.2054 11.4295 48.0562 12.3726L48.014 12.4012C46.6468 13.3538 45.3416 14.3436 44.0982 15.3705L43.8169 15.3534L43.4849 15.6963C41.7128 17.633 40.1727 19.7761 38.8968 22.0808Z" fill="url(#paint8_linear_7224_2547)"/>
<path d="M90.0887 29.4962H94.224C94.224 29.856 94.3063 30.2108 94.4645 30.5327C94.6227 30.8546 94.8523 31.1347 95.1354 31.3509C95.743 31.7682 96.5419 31.9682 97.5659 31.9682C98.2209 31.9887 98.8703 31.8402 99.4535 31.5367C99.6699 31.4284 99.8525 31.2614 99.9812 31.054C100.11 30.8467 100.179 30.6072 100.182 30.3621C100.182 29.6229 99.3306 29.0666 97.6278 28.6931C97.0722 28.6102 96.5232 28.487 95.985 28.3245C93.8414 27.7843 92.3983 27.1499 91.6697 26.4097C91.265 26.0343 90.9463 25.5734 90.7358 25.0594C90.5254 24.5454 90.4284 23.9908 90.4516 23.4346C90.4402 22.6931 90.5927 21.9584 90.898 21.2847C91.2033 20.6111 91.6535 20.0156 92.2154 19.5422C93.4335 18.602 95.0144 18.1133 96.9583 18.1133C99.0709 18.1133 100.745 18.5934 102.005 19.5422C102.579 20.0368 103.043 20.6488 103.368 21.3383C103.693 22.0278 103.87 22.7791 103.89 23.5432H101.274C100.913 23.5524 100.556 23.459 100.245 23.2737C99.9332 23.0885 99.6786 22.8186 99.5097 22.4944L99.0231 22.0228C98.4316 21.6214 97.7275 21.4268 97.0173 21.4684C96.3877 21.4293 95.7587 21.5563 95.1917 21.8371C95.0133 21.9581 94.8692 22.1243 94.7735 22.3193C94.6777 22.5143 94.6338 22.7313 94.6459 22.9488C94.6459 23.6147 95.6952 24.1691 97.8078 24.6178C98.1763 24.7637 98.566 24.8468 98.9612 24.8636C101.032 25.4037 102.475 26.0239 103.279 26.7183C104.056 27.4585 104.435 28.4473 104.435 29.6819C104.435 31.491 103.783 32.8942 102.489 33.883C101.274 34.7947 99.4507 35.2434 97.0173 35.2434C94.7078 35.2434 92.989 34.7632 91.8497 33.8144C90.7104 32.8656 90.0859 31.4853 90.0859 29.6762L90.0887 29.4962Z" fill="#2A3E5F"/>
<path d="M113.104 35.1955C111.655 35.2742 110.203 35.2541 108.757 35.1355C107.19 35.0098 106.414 33.9924 106.414 32.109V13.9473H108.605C108.867 13.9496 109.125 14.0067 109.363 14.1149C109.602 14.2231 109.816 14.38 109.992 14.576C110.188 14.7678 110.343 14.9984 110.448 15.2535C110.552 15.5087 110.604 15.7829 110.6 16.0592V17.834H114.128V19.6916C114.138 19.9734 114.089 20.2543 113.985 20.5155C113.88 20.7767 113.721 21.0122 113.52 21.2063C113.125 21.5822 112.601 21.7871 112.06 21.7778H110.611V30.923C110.611 31.6175 111.022 31.9719 111.826 31.9719H113.104V35.1955Z" fill="#2A3E5F"/>
<path d="M128.586 29.8683C128.145 31.5982 127.294 32.9157 126.032 33.8207C124.768 34.7638 123.188 35.2497 121.289 35.2497C118.976 35.2497 117.168 34.4923 115.876 32.9634C114.585 31.4801 113.93 29.3653 113.93 26.6017C113.93 23.9611 114.554 21.9063 115.814 20.423C117.108 18.8941 118.909 18.1367 121.227 18.1367C123.665 18.1367 125.55 18.8779 126.881 20.3601C128.175 21.8843 128.824 24.0058 128.828 26.7246V27.4048C128.841 27.5516 128.819 27.6994 128.766 27.8363H118.248C118.293 29.1167 118.597 30.0598 119.159 30.6771C119.691 31.3429 120.481 31.6659 121.531 31.6659C122.146 31.6857 122.755 31.5366 123.294 31.2343C123.558 31.0986 123.787 30.903 123.964 30.6628C124.075 30.4632 124.231 30.2937 124.42 30.1684C124.752 29.9445 125.147 29.8362 125.545 29.8597L128.586 29.8683ZM124.451 25.0499C124.375 23.9382 124.085 23.1208 123.607 22.5807C123.075 22.0091 122.33 21.7233 121.356 21.7233C120.953 21.7079 120.551 21.7759 120.175 21.9233C119.799 22.0707 119.456 22.2944 119.168 22.5807C118.605 23.1523 118.301 23.9839 118.256 25.0499H124.451Z" fill="#2A3E5F"/>
<path d="M141.124 13.961H143.188C143.462 13.9586 143.734 14.0152 143.985 14.127C144.236 14.2388 144.461 14.4033 144.645 14.6097C144.838 14.7978 144.991 15.0233 145.096 15.2727C145.201 15.5221 145.255 15.7903 145.256 16.0615V27.7788C145.256 30.6996 144.412 32.6744 142.761 33.7089C141.137 34.7314 139.262 35.2673 137.351 35.255C136.298 35.255 135.252 35.0773 134.257 34.7292C133.297 34.4162 132.45 33.8191 131.826 33.0144C130.656 31.4883 130.062 29.4164 130.062 26.7786C130.062 24.1836 130.656 22.0974 131.826 20.537C133.042 18.9309 134.602 18.1278 136.507 18.1278C137.435 18.1061 138.355 18.3182 139.182 18.7451C139.972 19.2179 140.64 19.8753 141.129 20.6627L141.124 13.961ZM135.104 30.3623C135.396 30.7855 135.788 31.1265 136.246 31.3534C136.703 31.5803 137.209 31.6858 137.717 31.6598C138.216 31.6803 138.712 31.572 139.158 31.3452C139.605 31.1183 139.988 30.7802 140.271 30.3623C140.834 29.505 141.115 28.2475 141.115 26.5957C141.115 25.1134 140.811 23.9397 140.204 23.0748C139.894 22.6747 139.495 22.3542 139.041 22.1392C138.586 21.9243 138.088 21.8209 137.587 21.8373C137.098 21.826 136.614 21.9403 136.18 22.1696C135.746 22.3989 135.376 22.7358 135.104 23.1491C134.496 23.955 134.186 25.1124 134.186 26.5957C134.186 28.2475 134.496 29.4964 135.104 30.3623Z" fill="#2A3E5F"/>
<path d="M154.897 22.146C154.395 22.119 153.893 22.2178 153.437 22.4335C152.981 22.6493 152.584 22.9755 152.281 23.3834C151.673 24.2008 151.37 25.3439 151.37 26.7815V35.2436H147.234V14.0039H149.302C149.85 14.0054 150.375 14.2272 150.762 14.6208C151.15 15.0144 151.368 15.5478 151.37 16.1044V20.9743C151.698 20.3869 152.142 19.875 152.675 19.4707C153.207 19.0664 153.817 18.7785 154.464 18.6251C155.735 18.2948 157.076 18.3819 158.295 18.8737C159.44 19.3783 160.428 20.1893 161.153 21.22C161.935 22.2917 162.315 23.7693 162.315 25.6697V35.2436H158.239V26.7186C158.239 25.484 158.118 24.5094 157.395 23.4435C157.12 23.0311 156.747 22.696 156.31 22.4692C155.873 22.2424 155.387 22.1313 154.897 22.146Z" fill="#2A3E5F"/>
<path d="M158.281 39.833H164.993C165.679 39.8679 166.355 39.6598 166.906 39.2443C167.379 38.8585 168.631 37.9068 167.975 34.9575L162.321 18.5762H165.637C166.031 18.5747 166.415 18.7036 166.73 18.9434C167.045 19.1832 167.275 19.5208 167.384 19.9051L170.29 30.1934L173.148 20.0623C173.393 19.0735 174.046 18.5819 175.095 18.5819H178.012L171.016 39.7302C170.532 41.0876 169.922 42.0622 169.193 42.6309C168.465 43.1253 167.263 43.3739 165.606 43.3739H158.292L158.281 39.833Z" fill="#2A3E5F"/>
<path d="M78.0256 18.0052C79.3125 18.0052 80.5705 18.3929 81.6405 19.1192C82.7105 19.8456 83.5445 20.8779 84.0369 22.0858C84.5294 23.2937 84.6582 24.6228 84.4072 25.905C84.1561 27.1873 83.5364 28.3651 82.6265 29.2896C81.7165 30.2141 80.5571 30.8436 79.295 31.0987C78.0328 31.3537 76.7245 31.2228 75.5356 30.7225C74.3467 30.2222 73.3305 29.375 72.6155 28.2879C71.9005 27.2009 71.5189 25.9228 71.5189 24.6154C71.5212 22.863 72.2074 21.183 73.4272 19.9438C74.6469 18.7046 76.3006 18.0075 78.0256 18.0052ZM78.0256 13.9756C75.9534 13.975 73.9276 14.5988 72.2044 15.768C70.4812 16.9372 69.1381 18.5994 68.3448 20.5442C67.5516 22.489 67.3439 24.6291 67.748 26.6939C68.1522 28.7586 69.1499 30.6553 70.6152 32.1438C72.0804 33.6324 73.9473 34.6461 75.9797 35.0567C78.0121 35.4672 80.1187 35.2562 82.033 34.4503C83.9473 33.6445 85.5834 32.2799 86.7343 30.5293C87.8852 28.7787 88.4992 26.7206 88.4986 24.6154C88.4986 21.7936 87.3952 19.0873 85.4312 17.0919C83.4671 15.0966 80.8032 13.9756 78.0256 13.9756Z" fill="#2A3E5F"/>
<path d="M69.1836 39.4395L69.6759 41.3685C69.7856 41.7915 69.884 42.1859 69.9572 42.5774H69.9797C70.0669 42.1916 70.1878 41.7858 70.3116 41.3771L70.9221 39.4395H71.4847L72.0642 41.3371C72.202 41.7915 72.3117 42.1944 72.3961 42.5774H72.4186C72.4896 42.1618 72.5835 41.7506 72.6999 41.3457L73.2316 39.4395H73.9039L72.6999 43.2347H72.081L71.5184 41.4228C71.3863 41.0137 71.2755 40.5978 71.1865 40.1768C71.0976 40.6015 70.9839 41.0204 70.8461 41.4314L70.2441 43.2347H69.6252L68.5 39.4395H69.1836Z" fill="#57739B"/>
<path d="M76.1926 39.4395L76.6877 41.3685C76.7946 41.7915 76.8959 42.1859 76.9691 42.5774H76.9916C77.0759 42.1916 77.1997 41.7858 77.3235 41.3771L77.9255 39.4395H78.4881L79.0676 41.3371C79.2054 41.7915 79.3123 42.1944 79.3967 42.5774H79.4221C79.4929 42.1618 79.5869 41.7505 79.7034 41.3457L80.2378 39.4395H80.9074L79.7034 43.2347H79.0873L78.5247 41.4228C78.3926 41.0137 78.2818 40.5978 78.1927 40.1768H78.1759C78.0865 40.6011 77.9738 41.0199 77.8383 41.4314L77.2363 43.2347H76.6174L75.4922 39.4395H76.1926Z" fill="#57739B"/>
<path d="M83.207 39.4395L83.7021 41.3685C83.809 41.7915 83.9103 42.1859 83.9834 42.5774H84.0087C84.0931 42.1916 84.2169 41.7858 84.3407 41.3771L84.9567 39.4395H85.5194L86.0989 41.3371C86.2395 41.7915 86.3464 42.1944 86.4308 42.5774H86.4533C86.5243 42.1618 86.6182 41.7506 86.7346 41.3457L87.2663 39.4395H87.9386L86.7346 43.2347H86.1157L85.5531 41.4228C85.4237 40.9999 85.314 40.6255 85.2212 40.1768H85.2071C85.1182 40.6015 85.0045 41.0204 84.8667 41.4314L84.2647 43.2347H83.6487L82.5234 39.4395H83.207Z" fill="#57739B"/>
<path d="M89.3995 42.8289C89.3952 42.7648 89.4041 42.7005 89.4256 42.64C89.4471 42.5796 89.4807 42.5244 89.5244 42.4779C89.568 42.4313 89.6208 42.3946 89.6792 42.3699C89.7376 42.3452 89.8004 42.3332 89.8637 42.3345C89.9607 42.3299 90.0569 42.355 90.1399 42.4065C90.2228 42.458 90.2887 42.5335 90.329 42.6233C90.3693 42.7132 90.3822 42.8132 90.366 42.9106C90.3499 43.008 90.3054 43.0982 90.2383 43.1696C90.1712 43.2411 90.0846 43.2905 89.9897 43.3115C89.8947 43.3325 89.7957 43.3241 89.7055 43.2875C89.6152 43.2508 89.5379 43.1876 89.4833 43.1058C89.4288 43.0241 89.3996 42.9277 89.3995 42.8289Z" fill="#57739B"/>
<path d="M95.7764 41.3054C95.7764 42.7087 94.8199 43.3202 93.9169 43.3202C92.907 43.3202 92.125 42.5686 92.125 41.3683C92.125 40.0994 92.9436 39.3535 93.9788 39.3535C95.014 39.3535 95.7764 40.1451 95.7764 41.3054ZM92.8142 41.3455C92.8142 42.1771 93.284 42.803 93.9394 42.803C94.5949 42.803 95.0647 42.1857 95.0647 41.3312C95.0647 40.6881 94.7496 39.8708 93.9394 39.8708C93.1293 39.8708 92.8142 40.6253 92.8142 41.3455Z" fill="#57739B"/>
<path d="M97.7866 42.5287C98.0551 42.704 98.365 42.8027 98.684 42.8145C99.1763 42.8145 99.4069 42.5659 99.4069 42.2429C99.4069 41.92 99.2156 41.7342 98.7149 41.5456C98.0426 41.3027 97.7247 40.9255 97.7247 40.4711C97.7247 39.8595 98.2114 39.3565 99.0131 39.3565C99.3343 39.3541 99.6509 39.4347 99.933 39.5908L99.7642 40.0938C99.5341 39.95 99.2692 39.8738 98.999 39.8738C98.5968 39.8738 98.3745 40.111 98.3745 40.391C98.3745 40.6711 98.5968 40.8454 99.0834 41.0341C99.7332 41.2856 100.065 41.6056 100.065 42.1772C100.065 42.8431 99.556 43.3204 98.6587 43.3204C98.2927 43.3269 97.9313 43.2373 97.6094 43.0603L97.7866 42.5287Z" fill="#57739B"/>
<path d="M102.993 38.3506V39.4394H103.967V39.9653H102.993V42.0115C102.993 42.4831 103.126 42.7489 103.503 42.7489C103.635 42.7508 103.768 42.7354 103.896 42.7031L103.927 43.2204C103.734 43.2887 103.53 43.3206 103.325 43.3147C103.19 43.3234 103.054 43.3024 102.928 43.2531C102.801 43.2037 102.686 43.1273 102.591 43.0289C102.386 42.7451 102.292 42.3933 102.329 42.043V39.971H101.75V39.4394H102.329V38.5306L102.993 38.3506Z" fill="#57739B"/>
<path d="M106.306 41.4626C106.32 42.3972 106.908 42.7801 107.586 42.7801C107.941 42.7911 108.294 42.7249 108.621 42.5858L108.737 43.0773C108.344 43.2457 107.92 43.3265 107.493 43.3145C106.345 43.3145 105.656 42.5458 105.656 41.3998C105.656 40.2537 106.32 39.3535 107.409 39.3535C108.63 39.3535 108.953 40.4452 108.953 41.1425C108.951 41.2496 108.944 41.3564 108.931 41.4626H106.306ZM108.298 40.9682C108.298 40.531 108.121 39.8479 107.355 39.8479C106.669 39.8479 106.368 40.491 106.315 40.9682H108.298Z" fill="#57739B"/>
<path d="M114.261 37.667V42.2396C114.261 42.5768 114.261 42.9626 114.292 43.2198H113.684L113.651 42.5825C113.529 42.8156 113.344 43.009 113.119 43.1405C112.893 43.2719 112.636 43.3361 112.376 43.3256C111.473 43.3256 110.781 42.5511 110.781 41.3994C110.781 40.1362 111.544 39.3589 112.455 39.3589C112.676 39.3442 112.896 39.3894 113.094 39.4898C113.292 39.5902 113.459 39.7423 113.58 39.9304H113.597V37.667H114.261ZM113.583 40.985C113.583 40.8888 113.573 40.793 113.552 40.6992C113.503 40.4726 113.379 40.2699 113.201 40.1248C113.023 39.9797 112.801 39.901 112.573 39.9018C111.87 39.9018 111.448 40.5277 111.448 41.3679C111.448 42.1338 111.816 42.7712 112.551 42.7712C112.784 42.7704 113.011 42.6883 113.192 42.5385C113.373 42.3887 113.498 42.1803 113.547 41.9481C113.568 41.8544 113.578 41.7585 113.577 41.6623L113.583 40.985Z" fill="#57739B"/>
<path d="M116.628 37.667H117.306V40.0362H117.32C117.435 39.8319 117.603 39.6639 117.806 39.5503C118.017 39.4243 118.257 39.3564 118.501 39.3531C119.002 39.3531 119.807 39.6675 119.807 40.9764V43.2341H119.126V41.0564C119.126 40.4448 118.904 39.9133 118.262 39.9133C118.058 39.9177 117.861 39.9868 117.697 40.1108C117.534 40.2348 117.413 40.4075 117.351 40.6049C117.315 40.7105 117.3 40.8221 117.306 40.9335V43.2198H116.625L116.628 37.667Z" fill="#57739B"/>
<path d="M122.302 39.4395L123.121 41.6829C123.205 41.9344 123.298 42.2316 123.36 42.4602H123.374C123.444 42.2316 123.52 41.9429 123.613 41.6686L124.356 39.4395H125.073L124.058 42.1459C123.571 43.4462 123.239 44.1121 122.775 44.5207C122.537 44.7422 122.246 44.8969 121.931 44.9694L121.762 44.3979C121.979 44.3229 122.18 44.2087 122.356 44.0606C122.598 43.8512 122.791 43.5883 122.918 43.2919C122.946 43.2403 122.964 43.1841 122.972 43.1261C122.967 43.064 122.951 43.0032 122.927 42.9461L121.562 39.4395H122.302Z" fill="#57739B"/>
<path d="M126.47 42.8289C126.465 42.7648 126.474 42.7005 126.496 42.64C126.517 42.5796 126.551 42.5244 126.595 42.4779C126.638 42.4313 126.691 42.3946 126.749 42.3699C126.808 42.3452 126.871 42.3332 126.934 42.3345C127.031 42.3299 127.127 42.355 127.21 42.4065C127.293 42.458 127.359 42.5335 127.399 42.6233C127.44 42.7132 127.453 42.8132 127.436 42.9106C127.42 43.008 127.376 43.0982 127.309 43.1696C127.242 43.2411 127.155 43.2905 127.06 43.3115C126.965 43.3325 126.866 43.3241 126.776 43.2875C126.686 43.2508 126.608 43.1876 126.554 43.1058C126.499 43.0241 126.47 42.9277 126.47 42.8289Z" fill="#57739B"/>
<path d="M132.139 43.0941C131.802 43.2472 131.436 43.3223 131.067 43.3142C129.942 43.3142 129.205 42.5368 129.205 41.3765C129.193 41.1064 129.237 40.8367 129.334 40.5849C129.43 40.3331 129.578 40.1048 129.768 39.9148C129.957 39.7248 130.184 39.5774 130.433 39.4821C130.682 39.3868 130.948 39.3458 131.214 39.3617C131.537 39.3581 131.858 39.4254 132.153 39.5589L132.001 40.0905C131.759 39.9624 131.487 39.9003 131.214 39.9105C130.356 39.9105 129.894 40.5535 129.894 41.3394C129.894 42.2168 130.457 42.7683 131.188 42.7683C131.48 42.7707 131.769 42.7062 132.032 42.5797L132.139 43.0941Z" fill="#57739B"/>
<path d="M137.508 41.3054C137.508 42.7087 136.551 43.3202 135.648 43.3202C134.639 43.3202 133.859 42.5686 133.859 41.3683C133.859 40.0994 134.675 39.3535 135.71 39.3535C136.746 39.3535 137.508 40.1451 137.508 41.3054ZM134.546 41.3455C134.546 42.1771 135.016 42.803 135.671 42.803C136.326 42.803 136.796 42.1857 136.796 41.3312C136.796 40.6881 136.481 39.8708 135.671 39.8708C134.861 39.8708 134.546 40.6253 134.546 41.3455Z" fill="#57739B"/>
<path d="M139.601 40.4681C139.601 40.0766 139.601 39.7536 139.57 39.4393H140.167L140.198 40.0508H140.22C140.332 39.8349 140.501 39.6551 140.709 39.5318C140.916 39.4086 141.153 39.3468 141.393 39.3535C141.626 39.3515 141.853 39.4238 142.043 39.5603C142.233 39.6967 142.375 39.8903 142.451 40.1137H142.465C142.569 39.9223 142.71 39.7549 142.881 39.6222C143.117 39.4368 143.41 39.3417 143.708 39.3535C144.203 39.3535 144.935 39.6822 144.935 40.9997V43.2345H144.271V41.0883C144.271 40.3566 144.009 39.9194 143.461 39.9194C143.28 39.927 143.106 39.9912 142.962 40.1033C142.819 40.2153 142.713 40.3697 142.659 40.5453C142.624 40.6571 142.606 40.7737 142.606 40.8911V43.2345H141.942V40.9625C141.942 40.3566 141.677 39.9194 141.163 39.9194C140.915 39.9494 140.688 40.0704 140.522 40.2594C140.357 40.4485 140.265 40.6925 140.265 40.9454V43.2317H139.601V40.4681Z" fill="#57739B"/>
<path d="M78.0266 26.8647C78.5777 26.8639 79.1115 26.6691 79.5371 26.3133C79.9627 25.9576 80.2537 25.463 80.3607 24.9138C80.4676 24.3645 80.3838 23.7946 80.1236 23.301C79.8634 22.8075 79.4428 22.4209 78.9335 22.207C78.4241 21.9931 77.8576 21.9652 77.3303 22.1281C76.803 22.2909 76.3476 22.6345 76.0416 23.1001C75.7356 23.5658 75.598 24.1248 75.6522 24.682C75.7063 25.2392 75.949 25.7601 76.3387 26.1559C76.5568 26.3858 76.8193 26.5674 77.1098 26.6894C77.4002 26.8113 77.7124 26.871 78.0266 26.8647Z" fill="url(#paint9_linear_7224_2547)"/>
</g>
<defs>
<linearGradient id="paint0_linear_7224_2547" x1="1.89959" y1="4.96735" x2="49.1891" y2="49.9665" gradientUnits="userSpaceOnUse">
<stop offset="0.16" stop-color="#0F83CE"/>
<stop offset="0.59" stop-color="#5C5FEE"/>
<stop offset="1" stop-color="#9672F6"/>
</linearGradient>
<linearGradient id="paint1_linear_7224_2547" x1="46.8685" y1="32.7402" x2="24.2753" y2="51.4477" gradientUnits="userSpaceOnUse">
<stop offset="0.01" stop-color="#CBA4F1"/>
<stop offset="1" stop-color="#7165EF"/>
</linearGradient>
<linearGradient id="paint2_linear_7224_2547" x1="30.4254" y1="-1.52854" x2="35.0121" y2="2.83444" gradientUnits="userSpaceOnUse">
<stop offset="0.16" stop-color="#0F83CE"/>
<stop offset="0.59" stop-color="#5C5FEE"/>
<stop offset="1" stop-color="#9672F6"/>
</linearGradient>
<linearGradient id="paint3_linear_7224_2547" x1="54.6679" y1="21.243" x2="25.9899" y2="70.4387" gradientUnits="userSpaceOnUse">
<stop stop-color="#B497F1"/>
<stop offset="1" stop-color="#7165EF"/>
</linearGradient>
<linearGradient id="paint4_linear_7224_2547" x1="39.0429" y1="1.78918" x2="45.7517" y2="25.6093" gradientUnits="userSpaceOnUse">
<stop stop-color="#0F83CE"/>
<stop offset="1" stop-color="#5C5FEE"/>
</linearGradient>
<linearGradient id="paint5_linear_7224_2547" x1="33.8509" y1="-8.23021" x2="1.98205" y2="31.4472" gradientUnits="userSpaceOnUse">
<stop stop-color="#3FDFDD"/>
<stop offset="1" stop-color="#148AD2"/>
</linearGradient>
<linearGradient id="paint6_linear_7224_2547" x1="52.5539" y1="19.2139" x2="45.7047" y2="47.81" gradientUnits="userSpaceOnUse">
<stop stop-color="#3FDFDD"/>
<stop offset="1" stop-color="#148AD2"/>
</linearGradient>
<linearGradient id="paint7_linear_7224_2547" x1="33.2437" y1="10.9177" x2="45.7085" y2="10.9177" gradientUnits="userSpaceOnUse">
<stop offset="0.01" stop-color="#CBA4F1"/>
<stop offset="1" stop-color="#7165EF"/>
</linearGradient>
<linearGradient id="paint8_linear_7224_2547" x1="43.1164" y1="12.747" x2="46.8474" y2="25.9915" gradientUnits="userSpaceOnUse">
<stop offset="0.01" stop-color="#CBA4F1"/>
<stop offset="1" stop-color="#7165EF"/>
</linearGradient>
<linearGradient id="paint9_linear_7224_2547" x1="40.9812" y1="-15.3661" x2="146.306" y2="94.358" gradientUnits="userSpaceOnUse">
<stop stop-color="#3FDFDD"/>
<stop offset="1" stop-color="#148AD2"/>
</linearGradient>
<clipPath id="clip0_7224_2547">
<rect width="178" height="56" fill="white"/>
</clipPath>
</defs>
</svg>
