<svg width="30" height="31" viewBox="0 0 30 31" fill="none" xmlns="http://www.w3.org/2000/svg">
<path d="M15.9974 11C15.9974 10.4477 15.5497 9.99996 14.9974 9.99996C14.4451 9.99996 13.9974 10.4477 13.9974 11H15.9974ZM11.6031 19.8091C11.2243 20.2109 11.2429 20.8438 11.6447 21.2227C12.0466 21.6015 12.6795 21.5829 13.0583 21.181L11.6031 19.8091ZM2.3727 3.55242C1.94144 3.89743 1.87152 4.52673 2.21653 4.95799C2.56154 5.38925 3.19083 5.45917 3.62209 5.11416L2.3727 3.55242ZM6.95542 2.44749C7.38669 2.10249 7.45661 1.47319 7.1116 1.04193C6.76659 0.610669 6.1373 0.540748 5.70603 0.885757L6.95542 2.44749ZM26.3727 5.11416C26.804 5.45917 27.4333 5.38925 27.7783 4.95799C28.1233 4.52673 28.0534 3.89743 27.6221 3.55242L26.3727 5.11416ZM24.2888 0.885757C23.8575 0.540748 23.2282 0.610669 22.8832 1.04193C22.5382 1.47319 22.6081 2.10249 23.0394 2.44749L24.2888 0.885757ZM14.4526 18.2445L15.1802 18.9305L14.4526 18.2445ZM13.9974 11V16.8725H15.9974V11H13.9974ZM13.0583 21.181L15.1802 18.9305L13.725 17.5585L11.6031 19.8091L13.0583 21.181ZM3.62209 5.11416L6.95542 2.44749L5.70603 0.885757L2.3727 3.55242L3.62209 5.11416ZM27.6221 3.55242L24.2888 0.885757L23.0394 2.44749L26.3727 5.11416L27.6221 3.55242ZM27.3307 16.3333C27.3307 23.1448 21.8089 28.6666 14.9974 28.6666V30.6666C22.9135 30.6666 29.3307 24.2494 29.3307 16.3333H27.3307ZM14.9974 28.6666C8.18588 28.6666 2.66406 23.1448 2.66406 16.3333H0.664062C0.664062 24.2494 7.08131 30.6666 14.9974 30.6666V28.6666ZM2.66406 16.3333C2.66406 9.52178 8.18588 3.99996 14.9974 3.99996V1.99996C7.08131 1.99996 0.664062 8.41721 0.664062 16.3333H2.66406ZM14.9974 3.99996C21.8089 3.99996 27.3307 9.52178 27.3307 16.3333H29.3307C29.3307 8.41721 22.9135 1.99996 14.9974 1.99996V3.99996ZM13.9974 16.8725C13.9974 17.1275 13.9 17.3729 13.725 17.5585L15.1802 18.9305C15.7051 18.3738 15.9974 17.6376 15.9974 16.8725H13.9974Z" fill="#0F1E42"/>
</svg>
