<svg width="18" height="18" viewBox="0 0 18 18" fill="none" xmlns="http://www.w3.org/2000/svg">
<g clip-path="url(#clip0_651_19522)">
<path d="M9.75 6.1875C9.75 5.77329 9.41422 5.4375 9 5.4375C8.58579 5.4375 8.25 5.77329 8.25 6.1875H9.75ZM6.9543 11.014C6.67015 11.3154 6.68412 11.79 6.9855 12.0742C7.28689 12.3583 7.76156 12.3444 8.0457 12.043L6.9543 11.014ZM1.78148 1.85185C1.45803 2.11061 1.40559 2.58257 1.66435 2.90602C1.92311 3.22947 2.39507 3.28191 2.71852 3.02315L1.78148 1.85185ZM4.59352 1.52315C4.91697 1.26439 4.96941 0.792425 4.71065 0.468979C4.45189 0.145532 3.97993 0.0930912 3.65648 0.351848L4.59352 1.52315ZM15.2815 3.02315C15.6049 3.28191 16.0769 3.22947 16.3357 2.90602C16.5944 2.58257 16.542 2.11061 16.2185 1.85185L15.2815 3.02315ZM14.3435 0.351848C14.0201 0.0930912 13.5481 0.145532 13.2893 0.468979C13.0306 0.792425 13.083 1.26439 13.4065 1.52315L14.3435 0.351848ZM8.45521 10.5153L7.90951 10.0008L8.45521 10.5153ZM8.25 6.1875V9.14334H9.75V6.1875H8.25ZM8.0457 12.043L9.00092 11.0298L7.90951 10.0008L6.9543 11.014L8.0457 12.043ZM2.71852 3.02315L4.59352 1.52315L3.65648 0.351848L1.78148 1.85185L2.71852 3.02315ZM16.2185 1.85185L14.3435 0.351848L13.4065 1.52315L15.2815 3.02315L16.2185 1.85185ZM15.75 9.1875C15.75 12.9154 12.7279 15.9375 9 15.9375V17.4375C13.5563 17.4375 17.25 13.7438 17.25 9.1875H15.75ZM9 15.9375C5.27208 15.9375 2.25 12.9154 2.25 9.1875H0.75C0.75 13.7438 4.44365 17.4375 9 17.4375V15.9375ZM2.25 9.1875C2.25 5.45958 5.27208 2.4375 9 2.4375V0.937498C4.44365 0.937498 0.75 4.63115 0.75 9.1875H2.25ZM9 2.4375C12.7279 2.4375 15.75 5.45958 15.75 9.1875H17.25C17.25 4.63115 13.5563 0.937498 9 0.937498V2.4375ZM8.25 9.14334C8.25 9.46214 8.1282 9.76888 7.90951 10.0008L9.00092 11.0298C9.48204 10.5195 9.75 9.84469 9.75 9.14334H8.25Z" fill="#937FF1"/>
</g>
<defs>
<clipPath id="clip0_651_19522">
<rect width="18" height="18" fill="white"/>
</clipPath>
</defs>
</svg>
