<svg width="18" height="18" viewBox="0 0 18 18" fill="none" xmlns="http://www.w3.org/2000/svg">
<g clip-path="url(#clip0_651_19513)">
<path d="M6.41269 3.38052C7.22738 0.873161 10.7746 0.873161 11.5893 3.38052C11.9536 4.50184 12.9986 5.26103 14.1776 5.26103C16.814 5.26103 17.9102 8.63466 15.7773 10.1843C14.8234 10.8773 14.4243 12.1057 14.7886 13.227C15.6033 15.7344 12.7335 17.8194 10.6007 16.2698C9.64681 15.5767 8.35519 15.5767 7.40133 16.2698C5.26845 17.8194 2.39868 15.7344 3.21336 13.227C3.5777 12.1057 3.17857 10.8773 2.22472 10.1843C0.0918355 8.63466 1.18799 5.26103 3.82438 5.26103C5.00341 5.26103 6.04835 4.50184 6.41269 3.38052Z" stroke="#937FF1" stroke-width="1.5"/>
</g>
<defs>
<clipPath id="clip0_651_19513">
<rect width="18" height="18" fill="white"/>
</clipPath>
</defs>
</svg>
