<svg width="20" height="21" viewBox="0 0 20 21" fill="none" xmlns="http://www.w3.org/2000/svg">
<path d="M15.1772 3.83325H4.82023C3.99832 3.83325 3.33203 4.49954 3.33203 5.32145C3.33203 5.79511 3.50147 6.25315 3.80973 6.61279L6.17152 9.36821C7.20719 10.5765 7.77648 12.1154 7.77648 13.7068V15.4999C7.77648 16.4204 8.52267 17.1666 9.44314 17.1666H10.5543C11.4747 17.1666 12.2209 16.4204 12.2209 15.4999V13.7068C12.2209 12.1154 12.7902 10.5765 13.8259 9.36821L16.1877 6.61279C16.4959 6.25315 16.6654 5.79511 16.6654 5.32145C16.6654 4.49954 15.9991 3.83325 15.1772 3.83325Z" stroke="#707C9A" stroke-width="2"/>
</svg>
