<svg width="20" height="21" viewBox="0 0 20 21" fill="none" xmlns="http://www.w3.org/2000/svg">
<path d="M5 9.66667V3" stroke="#707C9A" stroke-width="2" stroke-linecap="round"/>
<path d="M15 17.9999V11.3333" stroke="#707C9A" stroke-width="2" stroke-linecap="round"/>
<path d="M7.5 15.5C7.5 16.8807 6.38071 18 5 18C3.61929 18 2.5 16.8807 2.5 15.5C2.5 14.1193 3.61929 13 5 13C6.38071 13 7.5 14.1193 7.5 15.5Z" stroke="#707C9A" stroke-width="2"/>
<path d="M17.5 5.5C17.5 6.88071 16.3807 8 15 8C13.6193 8 12.5 6.88071 12.5 5.5C12.5 4.11929 13.6193 3 15 3C16.3807 3 17.5 4.11929 17.5 5.5Z" stroke="#707C9A" stroke-width="2"/>
</svg>
