<svg width="16" height="15" viewBox="0 0 16 15" fill="none" xmlns="http://www.w3.org/2000/svg">
<path d="M7.28617 1.68647C7.61005 1.14829 8.3903 1.14829 8.71418 1.68647L10.2868 4.29968C10.4032 4.49302 10.593 4.63091 10.8128 4.68183L13.7841 5.36998C14.396 5.5117 14.6371 6.25376 14.2254 6.7281L12.226 9.0313C12.0781 9.20171 12.0056 9.42482 12.0251 9.64963L12.2888 12.6881C12.3431 13.3139 11.7119 13.7725 11.1336 13.5275L8.32525 12.3378C8.11747 12.2497 7.88288 12.2497 7.6751 12.3378L4.8668 13.5275C4.28843 13.7725 3.6572 13.3139 3.71151 12.6881L3.97521 9.64963C3.99472 9.42482 3.92223 9.20171 3.77431 9.0313L1.77498 6.7281C1.36322 6.25376 1.60433 5.5117 2.21626 5.36998L5.18754 4.68183C5.40737 4.63091 5.59716 4.49302 5.71352 4.29968L7.28617 1.68647Z" fill="#FAB900" stroke="#FAB900" stroke-width="2"/>
</svg>
