<svg width="20" height="20" viewBox="0 0 20 20" fill="none" xmlns="http://www.w3.org/2000/svg">
<g clip-path="url(#clip0_7394_1185)">
<path d="M11.6669 6.57165C11.9358 7.36552 12.7071 7.90301 13.5773 7.90301M4.24844 5.84555C5.55848 5.84555 6.71952 5.002 7.12434 3.75609C8.02955 0.970139 11.9709 0.970139 12.8761 3.75609C13.281 5.002 14.442 5.84555 15.752 5.84555C18.6814 5.84555 19.8993 9.59402 17.5294 11.3158C16.4696 12.0858 16.0261 13.4507 16.4309 14.6967C17.3362 17.4826 14.1475 19.7993 11.7776 18.0775C10.7178 17.3075 9.28268 17.3075 8.22284 18.0775C5.85297 19.7993 2.66433 17.4826 3.56954 14.6967C3.97436 13.4507 3.53088 12.0859 2.47104 11.3158C0.101171 9.59402 1.31912 5.84555 4.24844 5.84555Z" stroke="#5E5E5E" stroke-width="1.5" stroke-linecap="round"/>
</g>
<defs>
<clipPath id="clip0_7394_1185">
<rect width="20" height="20" fill="white"/>
</clipPath>
</defs>
</svg>
