<svg width="26" height="31" viewBox="0 0 26 31" fill="none" xmlns="http://www.w3.org/2000/svg">
<path d="M3.7481 28.0602L4.33588 27.2511L3.7481 28.0602ZM2.27322 26.5853L3.08224 25.9975L2.27322 26.5853ZM23.7268 26.5853L22.9178 25.9975L23.7268 26.5853ZM22.2519 28.0602L21.6641 27.2511L22.2519 28.0602ZM22.2519 6.60659L21.6641 7.41561L22.2519 6.60659ZM23.7268 8.08147L22.9178 8.66926L23.7268 8.08147ZM3.7481 6.60659L4.33588 7.41561L3.7481 6.60659ZM2.27322 8.08147L3.08224 8.66926L2.27322 8.08147ZM17.7269 1.65966L17.4178 2.61072L17.7269 1.65966ZM22.0071 5.93993L21.0561 6.24894V6.24895L22.0071 5.93993ZM8.27329 1.65966L8.58231 2.61072L8.27329 1.65966ZM3.99303 5.93993L4.94408 6.24894V6.24894L3.99303 5.93993ZM7.66667 20.3334C7.11438 20.3334 6.66667 20.7811 6.66667 21.3334C6.66667 21.8857 7.11438 22.3334 7.66667 22.3334V20.3334ZM18.3333 22.3334C18.8856 22.3334 19.3333 21.8857 19.3333 21.3334C19.3333 20.7811 18.8856 20.3334 18.3333 20.3334V22.3334ZM13 28.3334C10.4779 28.3334 8.66666 28.332 7.26406 28.18C5.88018 28.0301 5.01322 27.7433 4.33588 27.2511L3.16031 28.8692C4.23541 29.6503 5.49459 30 7.04863 30.1684C8.58397 30.3347 10.5225 30.3334 13 30.3334V28.3334ZM0 17.3334C0 19.8109 -0.00137258 21.7494 0.16497 23.2847C0.333341 24.8388 0.683098 26.098 1.4642 27.1731L3.08224 25.9975C2.59012 25.3202 2.30327 24.4532 2.15333 23.0693C2.00137 21.6667 2 19.8555 2 17.3334H0ZM4.33588 27.2511C3.85481 26.9016 3.43176 26.4786 3.08224 25.9975L1.4642 27.1731C1.93708 27.8239 2.50945 28.3963 3.16031 28.8692L4.33588 27.2511ZM24 17.3334C24 19.8555 23.9986 21.6667 23.8467 23.0693C23.6967 24.4532 23.4099 25.3202 22.9178 25.9975L24.5358 27.1731C25.3169 26.098 25.6667 24.8388 25.835 23.2847C26.0014 21.7494 26 19.8109 26 17.3334H24ZM13 30.3334C15.4775 30.3334 17.416 30.3347 18.9514 30.1684C20.5054 30 21.7646 29.6503 22.8397 28.8692L21.6641 27.2511C20.9868 27.7433 20.1198 28.0301 18.7359 28.18C17.3333 28.332 15.5221 28.3334 13 28.3334V30.3334ZM22.9178 25.9975C22.5682 26.4786 22.1452 26.9016 21.6641 27.2511L22.8397 28.8692C23.4905 28.3963 24.0629 27.8239 24.5358 27.1731L22.9178 25.9975ZM26 17.3334C26 14.8558 26.0014 12.9173 25.835 11.382C25.6667 9.82796 25.3169 8.56879 24.5358 7.49369L22.9178 8.66926C23.4099 9.3466 23.6967 10.2136 23.8467 11.5974C23.9986 13 24 14.8113 24 17.3334H26ZM21.6641 7.41561C22.1452 7.76513 22.5682 8.18819 22.9178 8.66926L24.5358 7.49369C24.0629 6.84283 23.4905 6.27045 22.8397 5.79758L21.6641 7.41561ZM2 17.3334C2 14.8113 2.00137 13 2.15333 11.5974C2.30327 10.2136 2.59012 9.3466 3.08224 8.66926L1.4642 7.49369C0.683098 8.56879 0.333341 9.82796 0.16497 11.382C-0.00137258 12.9173 0 14.8558 0 17.3334H2ZM3.16031 5.79758C2.50945 6.27045 1.93708 6.84283 1.4642 7.49369L3.08224 8.66926C3.43175 8.18819 3.85481 7.76513 4.33588 7.41561L3.16031 5.79758ZM13.0001 2.33337C15.5596 2.33337 16.6022 2.34571 17.4178 2.61072L18.0359 0.708607C16.843 0.321037 15.4039 0.333374 13.0001 0.333374V2.33337ZM17.4178 2.61072C19.143 3.17125 20.4955 4.5238 21.0561 6.24894L22.9582 5.63091C22.1998 3.29689 20.3699 1.46698 18.0359 0.708607L17.4178 2.61072ZM13.0001 0.333374C10.5962 0.333374 9.15709 0.321037 7.96427 0.708607L8.58231 2.61072C9.39792 2.34571 10.4405 2.33337 13.0001 2.33337V0.333374ZM7.96427 0.708607C5.63025 1.46698 3.80034 3.29689 3.04197 5.63091L4.94408 6.24894C5.50462 4.5238 6.85716 3.17126 8.58231 2.61072L7.96427 0.708607ZM4.82331 6.7276C4.85682 6.55134 4.8968 6.39448 4.94408 6.24894L3.04197 5.63091C2.96604 5.8646 2.90607 6.10384 2.8585 6.35408L4.82331 6.7276ZM13 4.33337C10.5651 4.33337 8.65162 4.33212 7.13091 4.48963C5.5947 4.64874 4.34286 4.97871 3.27255 5.71806L4.40926 7.36362C5.08694 6.8955 5.95862 6.62174 7.33695 6.47899C8.73077 6.33462 10.5229 6.33337 13 6.33337V4.33337ZM3.27255 5.71806C3.23483 5.74411 3.19743 5.77061 3.16031 5.79758L4.33588 7.41561C4.36017 7.39796 4.38463 7.38064 4.40926 7.36362L3.27255 5.71806ZM23.1417 6.35421C23.0941 6.10393 23.0341 5.86465 22.9582 5.63091L21.0561 6.24895C21.1034 6.39451 21.1433 6.5514 21.1769 6.7277L23.1417 6.35421ZM13 6.33337C15.4772 6.33337 17.2693 6.33462 18.6632 6.479C20.0415 6.62177 20.9132 6.89555 21.5909 7.36371L22.7277 5.7182C21.6573 4.97878 20.4055 4.64877 18.8692 4.48964C17.3485 4.33212 15.435 4.33337 13 4.33337V6.33337ZM21.5909 7.36371C21.6155 7.3807 21.6399 7.39799 21.6641 7.41561L22.8397 5.79758C22.8026 5.77066 22.7653 5.7442 22.7277 5.7182L21.5909 7.36371ZM7.66667 22.3334H18.3333V20.3334H7.66667V22.3334Z" fill="#0F1E42"/>
</svg>
