<svg width="20" height="20" viewBox="0 0 20 20" fill="none" xmlns="http://www.w3.org/2000/svg">
<path d="M17.5 10V6.66671C17.5 4.82576 16.0076 3.33337 14.1667 3.33337H5.83333C3.99238 3.33337 2.5 4.82576 2.5 6.66671V14.1667C2.5 16.0077 3.99238 17.5 5.83333 17.5H10" stroke="#937FF1" stroke-width="2" stroke-linecap="round"/>
<path d="M6.66406 2.5V5" stroke="#937FF1" stroke-width="2" stroke-linecap="round"/>
<path d="M14.1693 8.33337H5.83594" stroke="#937FF1" stroke-width="2" stroke-linecap="round"/>
<path d="M13.3359 2.5V5" stroke="#937FF1" stroke-width="2" stroke-linecap="round"/>
<path d="M17.5 15C17.5 16.3807 16.3807 17.5 15 17.5C13.6193 17.5 12.5 16.3807 12.5 15C12.5 13.6193 13.6193 12.5 15 12.5C16.3807 12.5 17.5 13.6193 17.5 15Z" stroke="#937FF1" stroke-width="2"/>
</svg>
