<svg width="20" height="20" viewBox="0 0 20 20" fill="none" xmlns="http://www.w3.org/2000/svg">
<path d="M9.99718 4.16663C8.5344 4.16666 7.09739 4.55174 5.83059 5.28316C4.56379 6.01458 3.51184 7.06656 2.78046 8.33338C2.04909 9.6002 1.66405 11.0372 1.66406 12.5C1.66407 13.9628 2.04912 15.3998 2.78052 16.6666C2.89102 16.8589 3.07339 16.9994 3.28749 17.0572C3.5016 17.1151 3.7299 17.0855 3.92218 16.975C4.11447 16.8645 4.25497 16.6821 4.3128 16.468C4.37062 16.2539 4.34102 16.0256 4.23052 15.8333C3.64005 14.8217 3.32942 13.6712 3.33052 12.5C3.33092 11.4776 3.56644 10.469 4.01887 9.55226C4.47131 8.63547 5.12853 7.83502 5.93972 7.2128C6.75092 6.59058 7.69435 6.16326 8.69707 5.96389C9.69979 5.76451 10.7349 5.79842 11.7225 6.063C12.71 6.32757 13.6234 6.81572 14.3921 7.4897C15.1609 8.16367 15.7643 9.00542 16.1558 9.94985C16.5472 10.8943 16.7162 11.9161 16.6497 12.9363C16.5832 13.9565 16.283 14.9477 15.7722 15.8333C15.7171 15.9284 15.6813 16.0335 15.667 16.1425C15.6527 16.2514 15.6601 16.3622 15.6888 16.4683C15.7174 16.5744 15.7668 16.6738 15.834 16.7608C15.9013 16.8477 15.985 16.9205 16.0805 16.975C16.2719 17.0836 16.4984 17.1122 16.7107 17.0544C16.9231 16.9966 17.1039 16.8572 17.2139 16.6666C17.9452 15.3998 18.3303 13.9628 18.3303 12.5C18.3303 11.0372 17.9453 9.6002 17.2139 8.33338C16.4825 7.06656 15.4306 6.01458 14.1638 5.28316C12.897 4.55174 11.46 4.16666 9.99718 4.16663ZM12.3639 8.96663L11.0722 10.25C10.7378 10.0851 10.37 9.99956 9.99718 9.99996C9.50273 9.99996 9.01938 10.1466 8.60826 10.4213C8.19714 10.696 7.8767 11.0864 7.68749 11.5433C7.49827 12.0001 7.44876 12.5027 7.54522 12.9877C7.64168 13.4726 7.87979 13.9181 8.22942 14.2677C8.57905 14.6174 9.02451 14.8555 9.50946 14.9519C9.99441 15.0484 10.4971 14.9989 10.9539 14.8097C11.4107 14.6204 11.8012 14.3 12.0759 13.8889C12.3506 13.4778 12.4972 12.9944 12.4972 12.5C12.4966 12.13 12.4111 11.765 12.2472 11.4333L13.5389 10.15C13.617 10.0725 13.679 9.98032 13.7213 9.87877C13.7636 9.77722 13.7854 9.6683 13.7854 9.55829C13.7854 9.44828 13.7636 9.33936 13.7213 9.23781C13.679 9.13626 13.617 9.0441 13.5389 8.96663C13.3827 8.81142 13.1715 8.7243 12.9514 8.7243C12.7312 8.7243 12.52 8.81142 12.3639 8.96663ZM9.99718 13.3333C9.77617 13.3333 9.56421 13.2455 9.40793 13.0892C9.25165 12.9329 9.16385 12.721 9.16385 12.5C9.16385 12.2789 9.25165 12.067 9.40793 11.9107C9.56421 11.7544 9.77617 11.6666 9.99718 11.6666C10.2146 11.6653 10.424 11.7491 10.5805 11.9C10.6603 11.9781 10.7235 12.0715 10.7664 12.1746C10.8094 12.2776 10.8312 12.3883 10.8305 12.5C10.8305 12.721 10.7427 12.9329 10.5864 13.0892C10.4302 13.2455 10.2182 13.3333 9.99718 13.3333Z" fill="#937FF1"/>
</svg>
