<svg width="20" height="20" viewBox="0 0 20 20" fill="none" xmlns="http://www.w3.org/2000/svg">
<path d="M2.5 6.66663C2.5 5.28591 3.61929 4.16663 5 4.16663H10.8333C12.214 4.16663 13.3333 5.28591 13.3333 6.66663V13.3333C13.3333 14.714 12.214 15.8333 10.8333 15.8333H5C3.61929 15.8333 2.5 14.714 2.5 13.3333V6.66663Z" stroke="#937FF1" stroke-width="2"/>
<path d="M16.1118 13.7482L13.6118 11.4982C13.4362 11.3402 13.3359 11.1151 13.3359 10.8788V9.1211C13.3359 8.88486 13.4362 8.65972 13.6118 8.50169L16.1118 6.25169C16.6481 5.76905 17.5026 6.14963 17.5026 6.8711V13.1288C17.5026 13.8503 16.6481 14.2309 16.1118 13.7482Z" stroke="#937FF1" stroke-width="2" stroke-linejoin="round"/>
</svg>
