<svg width="24" height="24" viewBox="0 0 24 24" fill="none" xmlns="http://www.w3.org/2000/svg">
<path d="M3 7.00024C3 4.79111 4.79086 3.00024 7 3.00024H17C19.2091 3.00024 21 4.79111 21 7.00024V17.0002C21 19.2094 19.2091 21.0002 17 21.0002H7C4.79086 21.0002 3 19.2094 3 17.0002V7.00024Z" stroke="#707C9A" stroke-width="2"/>
<path d="M11.5691 7.71215C11.7634 7.38924 12.2316 7.38924 12.4259 7.71215L13.5341 9.55355C13.6039 9.66956 13.7178 9.75229 13.8497 9.78284L15.9434 10.2677C16.3105 10.3528 16.4552 10.798 16.2082 11.0826L14.7993 12.7056C14.7106 12.8078 14.6671 12.9417 14.6788 13.0766L14.8646 15.2177C14.8972 15.5931 14.5184 15.8683 14.1714 15.7213L12.1926 14.8829C12.0679 14.8301 11.9271 14.8301 11.8025 14.8829L9.82359 15.7213C9.47657 15.8683 9.09783 15.5931 9.13042 15.2177L9.31623 13.0766C9.32794 12.9417 9.28444 12.8078 9.19569 12.7056L7.78686 11.0826C7.53981 10.798 7.68447 10.3528 8.05163 10.2677L10.1453 9.78284C10.2772 9.75229 10.3911 9.66956 10.4609 9.55355L11.5691 7.71215Z" stroke="#707C9A" stroke-width="2"/>
</svg>
