<svg width="25" height="25" viewBox="0 0 25 25" fill="none" xmlns="http://www.w3.org/2000/svg">
<path d="M19.5 7.5H18.5V6.5C18.5 5.70435 18.1839 4.94129 17.6213 4.37868C17.0587 3.81607 16.2956 3.5 15.5 3.5H5.5C4.70435 3.5 3.94129 3.81607 3.37868 4.37868C2.81607 4.94129 2.5 5.70435 2.5 6.5V18.5C2.5 19.2956 2.81607 20.0587 3.37868 20.6213C3.94129 21.1839 4.70435 21.5 5.5 21.5H19.5C20.2956 21.5 21.0587 21.1839 21.6213 20.6213C22.1839 20.0587 22.5 19.2956 22.5 18.5V10.5C22.5 9.70435 22.1839 8.94129 21.6213 8.37868C21.0587 7.81607 20.2956 7.5 19.5 7.5ZM5.5 5.5H15.5C15.7652 5.5 16.0196 5.60536 16.2071 5.79289C16.3946 5.98043 16.5 6.23478 16.5 6.5V7.5H5.5C5.23478 7.5 4.98043 7.39464 4.79289 7.20711C4.60536 7.01957 4.5 6.76522 4.5 6.5C4.5 6.23478 4.60536 5.98043 4.79289 5.79289C4.98043 5.60536 5.23478 5.5 5.5 5.5ZM20.5 15.5H19.5C19.2348 15.5 18.9804 15.3946 18.7929 15.2071C18.6054 15.0196 18.5 14.7652 18.5 14.5C18.5 14.2348 18.6054 13.9804 18.7929 13.7929C18.9804 13.6054 19.2348 13.5 19.5 13.5H20.5V15.5ZM20.5 11.5H19.5C18.7044 11.5 17.9413 11.8161 17.3787 12.3787C16.8161 12.9413 16.5 13.7044 16.5 14.5C16.5 15.2956 16.8161 16.0587 17.3787 16.6213C17.9413 17.1839 18.7044 17.5 19.5 17.5H20.5V18.5C20.5 18.7652 20.3946 19.0196 20.2071 19.2071C20.0196 19.3946 19.7652 19.5 19.5 19.5H5.5C5.23478 19.5 4.98043 19.3946 4.79289 19.2071C4.60536 19.0196 4.5 18.7652 4.5 18.5V9.33C4.82127 9.44302 5.15943 9.50051 5.5 9.5H19.5C19.7652 9.5 20.0196 9.60536 20.2071 9.79289C20.3946 9.98043 20.5 10.2348 20.5 10.5V11.5Z" fill="#0F1E42"/>
</svg>
