<svg width="24" height="24" viewBox="0 0 24 24" fill="none" xmlns="http://www.w3.org/2000/svg">
<path d="M3 7.00024C3 4.79111 4.79086 3.00024 7 3.00024H17C19.2091 3.00024 21 4.79111 21 7.00024V17.0002C21 19.2094 19.2091 21.0002 17 21.0002H7C4.79086 21.0002 3 19.2094 3 17.0002V7.00024Z" stroke="#707C9A" stroke-width="2"/>
<path d="M12 12.0002C12 10.3434 13.3431 9.00024 15 9.00024H20C20.5523 9.00024 21 9.44796 21 10.0002V14.0002C21 14.5525 20.5523 15.0002 20 15.0002H15C13.3431 15.0002 12 13.6571 12 12.0002Z" stroke="#707C9A" stroke-width="2"/>
<path d="M15 12.0002L15.1 12.0002" stroke="#707C9A" stroke-width="2" stroke-linecap="round"/>
</svg>
