<svg width="32" height="32" viewBox="0 0 32 32" fill="none" xmlns="http://www.w3.org/2000/svg">
<path d="M21.3333 14.6667V22.6667M16 9.33333V22.6667M10.6667 17.3333V22.6667M16 28C11.0004 28 8.50054 28 6.7481 26.7268C6.18213 26.3156 5.68442 25.8179 5.27322 25.2519C4 23.4995 4 20.9996 4 16C4 11.0004 4 8.50054 5.27322 6.7481C5.68442 6.18213 6.18213 5.68442 6.7481 5.27322C8.50054 4 11.0004 4 16 4C20.9996 4 23.4995 4 25.2519 5.27322C25.8179 5.68442 26.3156 6.18213 26.7268 6.7481C28 8.50054 28 11.0004 28 16C28 20.9996 28 23.4995 26.7268 25.2519C26.3156 25.8179 25.8179 26.3156 25.2519 26.7268C23.4995 28 20.9996 28 16 28Z" stroke="#0F1E42" stroke-width="2" stroke-linecap="round"/>
</svg>
