<svg width="32" height="32" viewBox="0 0 32 32" fill="none" xmlns="http://www.w3.org/2000/svg">
<path d="M22.3928 10.2814C22.6693 11.5691 22.6693 13.2944 22.6693 16C22.6693 18.705 22.6693 20.4301 22.393 21.7176M22.3928 10.2814C22.2877 9.79215 22.1427 9.36609 21.9426 8.97344C21.3035 7.71902 20.2836 6.69915 19.0292 6.06C17.6031 5.33337 15.7363 5.33337 12.0026 5.33337C8.26892 5.33337 6.40208 5.33337 4.976 6.06C3.72159 6.69915 2.70172 7.71902 2.06256 8.97344C1.33594 10.3995 1.33594 12.2664 1.33594 16C1.33594 19.7337 1.33594 21.6006 2.06256 23.0266C2.70172 24.2811 3.72159 25.3009 4.976 25.9401C6.40208 26.6667 8.26892 26.6667 12.0026 26.6667C15.7363 26.6667 17.6031 26.6667 19.0292 25.9401C20.2836 25.3009 21.3035 24.2811 21.9426 23.0266C22.1429 22.6337 22.2879 22.2073 22.393 21.7176M22.3928 10.2814L22.6693 10.1624L23.2004 9.93028C26.5709 8.45753 28.2561 7.72115 29.4627 8.51065C30.6693 9.30015 30.6693 11.1392 30.6693 14.8174V17.1827C30.6693 20.8608 30.6693 22.6999 29.4627 23.4894C28.2561 24.2789 26.5709 23.5426 23.2004 22.0698L22.6693 21.8377L22.393 21.7176M8.0026 16C8.0026 13.619 8.0026 12.4285 8.47168 11.7403C8.88084 11.14 9.50973 10.753 10.202 10.6754C10.9957 10.5865 11.9629 11.1817 13.8973 12.3722C15.8318 13.5628 16.799 14.158 17.1236 14.9351C17.4067 15.613 17.4067 16.3871 17.1236 17.0649C16.799 17.8421 15.8318 18.4373 13.8973 19.6278C11.9629 20.8183 10.9957 21.4136 10.202 21.3247C9.50973 21.2471 8.88084 20.8601 8.47168 20.2598C8.0026 19.5716 8.0026 18.3811 8.0026 16Z" stroke="#0F1E42" stroke-width="2"/>
</svg>
